<?xml version="1.0" standalone="no"?><!DOCTYPE svg PUBLIC "-//W3C//DTD SVG 1.1//EN" "http://www.w3.org/Graphics/SVG/1.1/DTD/svg11.dtd"><svg t="1531281040574" class="icon" style="" viewBox="0 0 1024 1024" version="1.1" xmlns="http://www.w3.org/2000/svg" p-id="1937" xmlns:xlink="http://www.w3.org/1999/xlink" width="200" height="200"><defs><style type="text/css"></style></defs><path d="M237.872 551.376l551.384 0 0 78.776-551.384 0 0-78.776Z" p-id="1938" fill="#bfbfbf"></path><path d="M237.872 708.92l275.696 0 0 78.768-275.696 0 0-78.768Z" p-id="1939" fill="#bfbfbf"></path><path d="M237.872 393.848l551.384 0 0 78.768-551.384 0 0-78.768Z" p-id="1940" fill="#bfbfbf"></path><path d="M789.256 78.768 789.256 0 237.872 0l0 78.768L40.952 78.768 40.952 1024l945.224 0L986.176 78.768 789.256 78.768zM316.648 78.768l393.84 0 0 78.768-393.84 0L316.648 78.768zM907.416 945.24 119.72 945.24 119.72 157.536l118.152 0 0 78.768 551.384 0 0-78.768 118.16 0L907.416 945.24z" p-id="1941" fill="#bfbfbf"></path></svg>