<?xml version="1.0" standalone="no"?><!DOCTYPE svg PUBLIC "-//W3C//DTD SVG 1.1//EN" "http://www.w3.org/Graphics/SVG/1.1/DTD/svg11.dtd"><svg t="1531108706065" class="icon" style="" viewBox="0 0 1024 1024" version="1.1" xmlns="http://www.w3.org/2000/svg" p-id="4988" xmlns:xlink="http://www.w3.org/1999/xlink" width="200" height="200"><defs><style type="text/css"></style></defs><path d="M362.666667 448m-64 0a64 64 0 1 0 128 0 64 64 0 1 0-128 0Z" fill="#d81e06" p-id="4989"></path><path d="M661.333333 448m-64 0a64 64 0 1 0 128 0 64 64 0 1 0-128 0Z" fill="#d81e06" p-id="4990"></path><path d="M512 85.333333C276.736 85.333333 85.333333 276.736 85.333333 512s191.402667 426.666667 426.666667 426.666667 426.666667-191.402667 426.666667-426.666667S747.264 85.333333 512 85.333333z m0 768c-188.202667 0-341.333333-153.130667-341.333333-341.333333s153.130667-341.333333 341.333333-341.333333 341.333333 153.130667 341.333333 341.333333-153.130667 341.333333-341.333333 341.333333z" fill="#d81e06" p-id="4991"></path><path d="M512 597.333333a254.165333 254.165333 0 0 0-204.8 102.357334L375.466667 750.933333c32.554667-43.392 82.346667-68.266667 136.533333-68.266666s103.978667 24.874667 136.533333 68.266666l68.266667-51.242666A254.122667 254.122667 0 0 0 512 597.333333z" fill="#d81e06" p-id="4992"></path></svg>