<?xml version="1.0" standalone="no"?><!DOCTYPE svg PUBLIC "-//W3C//DTD SVG 1.1//EN" "http://www.w3.org/Graphics/SVG/1.1/DTD/svg11.dtd"><svg t="1531641348144" class="icon" style="" viewBox="0 0 1024 1024" version="1.1" xmlns="http://www.w3.org/2000/svg" p-id="10702" xmlns:xlink="http://www.w3.org/1999/xlink" width="200" height="200"><defs><style type="text/css"></style></defs><path d="M959.820146 886.26808l-115.392953-115.378738 36.166789-36.166788a51.135928 51.135928 0 1 0-72.317331-72.309208l-0.020308 0.020308-152.051199-151.620666L1005.671892 162.333216a17.034478 17.034478 0 0 0 4.943005-10.519623l12.050857-132.585834a17.034478 17.034478 0 0 0-4.926757-13.598339 16.892321 16.892321 0 0 0-13.592247-4.926758L871.560916 12.75352A17.048694 17.048694 0 0 0 861.065662 17.664031L511.359278 366.387501 161.69351 17.712771a17.044632 17.044632 0 0 0-10.48713-4.910512L18.596175 0.6986A17.06291 17.06291 0 0 0 0.069048 19.227759l12.101628 132.618327a17.03854 17.03854 0 0 0 4.943004 10.519623L366.541843 510.796742l-152.063384 151.632851-0.016246-0.016247c-19.966975-19.971037-52.344263-19.973068-72.3153-0.004061-19.971037 19.966975-19.971037 52.344263-0.004062 72.3153l36.166789 36.166788-115.392953 115.376707a67.126567 67.126567 0 0 0-42.937527 18.843934c-26.623988 26.623988-26.623988 69.788966 0 96.412954s69.788966 26.623988 96.412954 0a67.449467 67.449467 0 0 0 19.526288-43.611758l114.704507-114.712629 36.158665 36.158665a51.129835 51.129835 0 0 0 85.552154-22.903534 51.133897 51.133897 0 0 0-13.222638-49.393489l152.268496-151.835932 152.262403 151.809532-0.012184 0.012185c-19.966975 19.973068-19.964945 52.350355 0.008123 72.319361 19.973068 19.966975 52.350355 19.964945 72.319361-0.008123l36.158666-36.158665 114.704506 114.712629c1.701823 36.873512 32.267623 65.796383 69.177691 65.459268 36.912098-0.337115 66.943794-29.812368 67.973417-66.71025 1.029623-36.899913-27.314465-68.001848-64.151423-70.394148zM45.563371 142.589631L35.884505 36.522181l106.09385 9.670742 345.242653 344.261769-96.540895 96.270797L45.563371 142.589631z m46.724997 834.831591c-13.486644 12.883492-34.720848 12.883492-48.207492 0a34.091295 34.091295 0 1 1 48.207492 0z m34.456842-58.546373a68.184622 68.184622 0 0 0-10.353096-13.764866 63.328942 63.328942 0 0 0-13.904992-10.204846l99.922202-99.910018 24.103746 24.103746-99.76786 99.775984z m208.249949-63.617318a17.06291 17.06291 0 0 1-24.111869 0l-144.636693-144.636693a17.048694 17.048694 0 0 1 24.11187-24.103746l72.3153 72.319362 0.796079 0.794049 0.107633 0.162465 0.160435 0.107633 59.198264 59.202326h0.002031l12.048827 12.050858a17.075095 17.075095 0 0 1 0.008123 24.103746z m164.349816-236.169597l-0.044678 0.028431-0.028432 0.042647-164.26249 163.799465-35.24886-35.24886 155.477184-155.479215a17.044632 17.044632 0 0 0-24.103747-24.103746l-155.477184 155.477184-37.074563-37.074563 164.132519-163.673554 0.038585-0.02437 0.02437-0.036555 120.589809-120.250662 0.069048-0.046709 0.044678-0.067017 357.295541-356.286226 106.085727-9.638249-9.638249 106.051203-357.169631 356.164377-0.069048 0.046708-0.044678 0.067017-120.595901 120.252694z m36.17085 12.071166l96.549018-96.276889 152.085723 151.653159-37.072532 37.06847-70.24793-70.24793a17.044632 17.044632 0 0 0-24.101716 24.101716l70.24793 70.24793-35.228552 35.22449-152.231941-151.770946z m176.337718 224.098431a17.048694 17.048694 0 0 1-24.111869-24.103746l11.953378-11.951348 0.14825-0.09951 59.305897-59.301836 0.012185-0.008123 0.008124-0.012185L820.353909 698.600443l0.117788-0.17465 11.9087-11.910731a17.044632 17.044632 0 0 1 24.107808-0.004062 17.044632 17.044632 0 0 1 0.004061 24.107808l-144.638723 144.638723z m194.493207 49.854483a67.991694 67.991694 0 0 0-10.353096 13.766897l-99.767861-99.775984 24.103746-24.103746 99.922203 99.910017a63.144138 63.144138 0 0 0-13.904992 10.202816z m72.309207 72.309208c-13.486644 12.883492-34.720848 12.883492-48.207492 0a34.091295 34.091295 0 1 1 48.207492 0z" fill="#bfbfbf" p-id="10703"></path></svg>